<svg xmlns="http://www.w3.org/2000/svg" viewBox="0 0 25 25" enable-background="new 0 0 25 25"><path d="M22.1 25h-19.2c-1.6 0-2.9-1.3-2.9-2.9v-17.2c0-1.6 1.3-2.9 2.9-2.9h19.2c1.6 0 2.9 1.3 2.9 2.9v17.2c0 1.6-1.3 2.9-2.9 2.9zm-19.2-22c-1.1 0-1.9.8-1.9 1.9v17.2c0 1 .8 1.9 1.9 1.9h19.2c1 0 1.9-.8 1.9-1.9v-17.2c0-1-.8-1.9-1.9-1.9h-19.2zM6 0h1v5h-1zM18 0h1v5h-1zM6 10h1v1h-1zM10 10h1v1h-1zM14 10h1v1h-1zM18 10h1v1h-1zM6 14h1v1h-1zM10 14h1v1h-1zM14 14h1v1h-1zM18 14h1v1h-1zM6 18h1v1h-1zM10 18h1v1h-1zM14 18h1v1h-1zM18 18h1v1h-1z"/></svg>