<svg xmlns="http://www.w3.org/2000/svg" viewBox="0 0 255 301.2" enable-background="new 0 0 255 301.2"><style type="text/css">.st0{fill:#FFFFFF;}</style><path class="st0" d="M115.9 301.2c-6 0-12-.4-18.1-1.2-28.3-3.6-54.4-15.6-75.5-34.7l14.9-16.5c17.7 16 39.7 26.1 63.5 29.1 5.1.7 10.1 1 15.2 1 25.7 0 50.6-8.4 71.3-24.4 24.8-19.1 40.6-46.7 44.6-77.8 5.7-44.5-14.9-89-52.6-113.3l12.1-18.7c21.8 14.1 39.1 33.9 50.3 57.4 11.4 24.1 15.7 50.9 12.3 77.5-4.7 36.9-23.6 69.8-53.1 92.6-24.7 19-54.3 29-84.9 29zm-40.2-99.7l-48.5-39.2 131.2-162.3 48.5 39.2-131.2 162.3zm-17.1-42.5l13.8 11.2 103.2-127.7-13.8-11.2-103.2 127.7zm-10.7 60.3l-32.2-26 30.5-37.8 32.2 26-30.5 37.8zm-11.9-28.2l9.7 7.8 12.3-15.2-9.7-7.8-12.3 15.2zm-36 52.7h93.2v22.3h-93.2z"/></svg>