<svg xmlns="http://www.w3.org/2000/svg" viewBox="0 0 2645 2269.4" enable-background="new 0 0 2645 2269.4"><style type="text/css">.st0{fill:#FFFFFF;}</style><path class="st0" d="M1600.1 1134.7c-10.8 0-21.6-.7-32.4-2.1-50.9-6.5-97.8-28.1-135.7-62.3l26.8-29.7c31.9 28.7 71.3 46.8 114 52.3 9.1 1.2 18.2 1.8 27.3 1.8 46.3 0 91-15.2 128.2-43.9 44.5-34.4 73-84 80.1-139.8 10.3-79.9-26.8-159.9-94.5-203.7l21.7-33.6c39.1 25.3 70.4 61 90.4 103.1 20.6 43.3 28.2 91.5 22.1 139.2-8.5 66.4-42.4 125.4-95.3 166.3-44.5 34.3-97.7 52.4-152.7 52.4zm-72.2-179.3l-87.1-70.4 235.7-291.7 87.1 70.4-235.7 291.7zm-30.9-76.3l24.9 20.1 185.4-229.4-24.9-20.1-185.4 229.4zm-19.2 108.4l-57.9-46.8 54.8-67.9 57.9 46.8-54.8 67.9zm-21.3-50.6l17.4 14.1 22.2-27.4-17.4-14.1-22.2 27.4zm-64.7 94.7h167.4v40h-167.4z"/></svg>