<svg xmlns="http://www.w3.org/2000/svg" viewBox="0 0 2645 2269.4" enable-background="new 0 0 2645 2269.4"><style type="text/css">.st0{fill:#FFFFFF;}</style><path class="st0" d="M1421 724c-81.6 0-148-66.4-148-148s66.4-148 148-148 148 66.4 148 148-66.4 148-148 148zm0-256c-59.6 0-108 48.4-108 108s48.4 108 108 108 108-48.4 108-108-48.4-108-108-108zm237.9 454.2c-59.5-74.6-146.2-117.4-238-117.4-90.3 0-176.1 41.6-235.4 114.2l-33.8-27.7c67.7-82.8 165.8-130.2 269.2-130.2 105.2 0 204.4 48.8 272.2 133.9l-34.2 27.2z"/></svg>