<svg xmlns="http://www.w3.org/2000/svg" viewBox="0 0 375 342" enable-background="new 0 0 375 342"><style type="text/css">.st0{fill:#FFFFFF;}</style><path class="st0" d="M186.6 205.2c-56.5 0-102.5-46-102.5-102.5s45.9-102.5 102.5-102.5 102.5 46 102.5 102.5-46 102.5-102.5 102.5zm0-177.3c-41.2 0-74.8 33.6-74.8 74.8s33.6 74.8 74.8 74.8 74.8-33.6 74.8-74.8-33.6-74.8-74.8-74.8zm164.9 313.6c-41.4-51.5-101.6-80.9-165.2-80.7-62.5.3-121.8 29.3-162.7 79.7l-23.5-19c46.6-57.5 114.5-90.7 186.1-91 72.8-.3 141.7 33.2 188.9 92l-23.6 19z"/></svg>